PathFileType	4	(X/Y/Z)	D:\TRACE\spot_10-12-23\spot_body_baseline_4-platform.trc
DataRate	CameraRate	NumFrames	NumMarkers	Units	OrigDataRate	OrigDataStartFrame	OrigNumFrames
100.00	100.00	      62	5	mm	100.00	3501	      7000
Frame#	Time	Left_Front			Right_Front			Left_Aft			Right_Aft			Post			
		X1	Y1	Z1	X2	Y2	Z2	X3	Y3	Z3	X4	Y4	Z4	X5	Y5	Z5	

3501	35.000	-780.70642	6.37036	-641.45941	791.56317	11.04243	-634.92279	-697.76074	5.52290	496.32022	719.38953	9.99324	582.33179	1.73469	743.95325	-959.45197	
3502	35.010	-780.67133	6.33195	-641.48120	791.54120	11.03181	-634.96472	-697.77820	5.62935	496.32077	719.34943	10.02301	582.29962	1.78905	743.91046	-959.40344	
3503	35.020	-780.67755	6.39904	-641.49377	791.60205	10.98561	-634.94116	-697.79089	5.62413	496.28122	719.37292	10.05176	582.30298	1.84761	743.83038	-959.46124	
3504	35.030	-780.73651	6.40226	-641.49982	791.63550	11.01277	-634.88318	-697.82538	5.61412	496.29114	719.34424	10.07944	582.26172	1.87936	743.88019	-959.47589	
3505	35.040	-780.73737	6.44291	-641.48944	791.57861	11.01265	-634.89746	-697.79858	5.64662	496.30960	719.38916	10.01320	582.28265	1.77282	743.90796	-959.60187	
3506	35.050	-780.75195	6.41430	-641.46851	791.58588	11.13239	-634.89264	-697.83148	5.56842	496.32675	719.37134	10.02124	582.27826	1.73171	743.95435	-959.64429	
3507	35.060	-780.68146	6.35892	-641.45483	791.59674	11.09421	-634.92737	-697.80981	5.54613	496.32101	719.36377	9.96760	582.27631	1.89128	743.97430	-959.67902	
3508	35.070	-780.64215	6.37728	-641.49152	791.57599	11.03415	-634.93286	-697.79266	5.56876	496.31924	719.34625	9.98576	582.26086	2.18812	743.96198	-959.58710	
3509	35.080	-780.69592	6.43776	-641.46136	791.63605	11.14437	-634.89423	-697.81390	5.58563	496.30835	719.35193	9.97673	582.23700	1.84791	743.94855	-959.56940	
3510	35.090	-780.74060	6.46142	-641.47198	791.65228	11.16037	-634.90356	-697.75836	5.54400	496.33908	719.35083	9.93449	582.23096	1.85830	743.96802	-959.47382	
3511	35.100	-780.75446	6.44136	-641.47217	791.52374	11.07104	-634.92633	-697.62311	5.45837	496.20676	719.28528	9.96136	582.21466	1.83400	743.90533	-959.41473	
3512	35.110	-780.76990	6.39913	-641.45978	791.55737	11.00256	-634.94574	-697.65088	5.50299	496.14487	719.22858	9.96796	582.17554	1.79990	743.85669	-959.34064	
3513	35.120	-780.68365	6.35552	-641.45044	791.53772	10.97615	-634.92834	-697.61877	5.46492	496.20856	719.20575	9.96437	582.13934	1.80407	743.86035	-959.27948	
3514	35.130	-780.67371	6.34649	-641.49475	791.59589	11.05430	-634.89392	-697.64606	5.43415	496.27252	719.25830	9.96380	582.15332	1.85032	743.88220	-959.26709	
3515	35.140	-780.65900	6.33441	-641.47937	791.61560	11.12093	-634.88812	-697.64349	5.45019	496.29642	719.28412	9.97187	582.11823	1.83650	743.92999	-959.26172	
3516	35.150	-780.59509	6.30416	-641.51978	791.65033	11.12056	-634.83826	-697.64368	5.47276	496.28992	719.20850	9.95891	582.09235	1.74192	743.97150	-959.38342	
3517	35.160	-780.63269	6.33401	-641.49652	791.55347	11.11005	-634.92426	-697.70953	5.44310	496.29993	719.16040	9.85523	582.04370	1.66685	744.03107	-959.53979	
3518	35.170	-780.55243	6.27186	-641.52686	791.54034	11.09889	-634.92200	-697.73822	5.43476	496.28006	719.12384	9.81100	582.04413	1.69409	744.03741	-959.56921	
3519	35.180	-780.63239	6.31308	-641.51141	791.58087	11.09175	-634.84717	-697.73462	5.48733	496.30704	719.07245	9.78262	582.06641	1.76545	743.96564	-959.57489	
3520	35.190	-780.55920	6.24415	-641.49579	791.65918	11.11745	-634.84351	-697.71509	5.50401	496.29788	719.12354	9.77867	582.06415	1.82546	743.94818	-959.52765	
3521	35.200	-780.60449	6.33503	-641.45844	791.61035	11.02540	-634.88336	-697.71149	5.53697	496.26532	719.07941	9.81237	582.03070	1.84401	743.94556	-959.52234	
3522	35.210	-780.69977	6.40028	-641.53003	791.59772	11.01950	-634.93030	-697.69122	5.57221	496.24042	719.04706	9.81742	582.00476	1.78207	743.90735	-959.53082	
3523	35.220	-780.68530	6.34025	-641.52405	791.59131	10.99180	-634.92950	-697.72064	5.59283	496.26389	718.97882	9.74892	581.98401	1.79627	743.87128	-959.45337	
3524	35.230	-780.55035	6.19712	-641.49622	791.59882	11.02746	-634.85443	-697.72644	5.51424	496.27261	718.93768	9.69457	581.98309	1.80652	743.89319	-959.44147	
3525	35.240	-780.59015	6.26510	-641.49896	791.66644	11.08966	-634.85046	-697.74634	5.53402	496.26538	718.96381	9.72901	581.87701	1.82493	743.89606	-959.43634	
3526	35.250	-780.57874	6.30887	-641.51611	791.60559	11.10918	-634.87860	-697.72369	5.53893	496.30066	718.95038	9.71720	581.86060	1.81304	743.95239	-959.42603	
3527	35.260	-780.61102	6.33836	-641.50958	791.60083	11.11705	-634.88049	-697.70343	5.55834	496.32770	718.94812	9.71657	581.89355	1.80719	743.97186	-959.46692	
3528	35.270	-780.61865	6.34264	-641.47461	791.57257	11.13625	-634.86267	-697.79626	5.57010	496.30508	718.83765	9.57312	581.87109	1.77989	743.99792	-959.41614	
3529	35.280	-780.70117	6.35674	-641.47913	791.59393	11.03198	-634.91296	-697.78583	5.56130	496.32895	718.79926	9.50191	581.88434	1.80485	743.94147	-959.36639	
3530	35.290	-780.68610	6.36478	-641.44794	791.61884	11.07857	-634.85297	-697.81897	5.54697	496.29276	718.85510	9.60023	581.85089	1.82818	743.93262	-959.34161	
3531	35.300	-780.69519	6.39019	-641.47980	791.59802	11.05162	-634.90149	-697.77319	5.53938	496.32571	718.89667	9.73092	581.73145	1.88319	743.89813	-959.34863	
3532	35.310	-780.70746	6.40570	-641.50519	791.61053	11.04180	-634.93018	-697.76917	5.60069	496.33133	718.93372	9.83454	581.68744	1.85005	743.88336	-959.36829	
3533	35.320	-780.67041	6.38706	-641.52466	791.57733	11.01819	-634.91418	-697.76617	5.62206	496.35101	718.89520	9.75531	581.77576	1.80812	743.90997	-959.40546	
3534	35.330	-780.62622	6.37642	-641.54657	791.61096	11.03075	-634.91608	-697.80695	5.62204	496.36502	719.48560	10.10932	582.28516	1.81626	743.90137	-959.44281	
3535	35.340	-780.72443	6.39624	-641.46155	791.64313	11.05277	-634.84717	-697.79565	5.55922	496.34393	719.42493	10.02281	582.30310	1.80727	743.90570	-959.46661	
3536	35.350	-780.71387	6.39809	-641.46155	791.63843	11.05319	-634.87952	-697.79901	5.56312	496.38034	719.48010	10.09424	582.32703	1.77001	743.94482	-959.53235	
3537	35.360	-780.68469	6.37273	-641.47217	791.62659	11.06012	-634.86389	-697.82141	5.58657	496.38452	719.51691	10.07791	582.30804	1.71823	743.98273	-959.60864	
3538	35.370	-780.72559	6.44628	-641.43988	791.61414	11.09985	-634.87750	-697.79865	5.62389	496.38330	719.47937	10.07550	582.32086	1.79862	743.99408	-959.60950	
3539	35.380	-780.61139	6.34041	-641.49188	791.62799	11.10736	-634.87860	-697.81396	5.59877	496.38382	719.49823	10.07287	582.31805	1.79304	743.99243	-959.58997	
3540	35.390	-780.56964	6.28617	-641.49231	791.60779	11.05362	-634.90454	-697.81000	5.62260	496.38846	719.45654	10.06593	582.31329	1.80454	743.91779	-959.48181	
3541	35.400	-780.70099	6.39269	-641.44836	791.59039	11.06169	-634.91876	-697.82318	5.56532	496.38330	719.45105	10.10159	582.31036	1.81582	743.89337	-959.38898	
3542	35.410	-780.66071	6.31888	-641.46838	791.60840	11.03721	-634.85840	-697.79620	5.60050	496.39014	719.45813	10.11579	582.29919	1.80355	743.91388	-959.38940	
3543	35.420	-780.60938	6.32591	-641.52032	791.59753	11.05917	-634.91302	-697.80640	5.62933	496.38547	719.51062	10.14883	582.31110	1.82221	743.91571	-959.37256	
3544	35.430	-780.67059	6.38539	-641.49902	791.63904	11.04694	-634.91553	-697.82214	5.61459	496.36234	719.53375	10.14416	582.32898	1.83712	743.92175	-959.36639	
3545	35.440	-780.52502	6.27297	-641.48627	791.61725	11.11677	-634.85724	-697.81488	5.58529	496.40662	719.48077	10.08564	582.33215	1.81562	743.95215	-959.39429	
3546	35.450	-780.66565	6.39972	-641.46082	791.61945	11.07297	-634.87946	-697.82428	5.57445	496.41895	719.43561	10.04989	582.30347	1.80227	743.96429	-959.39508	
3547	35.460	-780.70282	6.40463	-641.45203	791.59698	11.02400	-634.88812	-697.83655	5.54575	496.42551	719.45679	10.06050	582.32550	1.76011	743.96185	-959.43896	
3548	35.470	-780.66632	6.39845	-641.46991	791.58868	11.05948	-634.88818	-697.80042	5.60879	496.39938	719.45392	10.07555	582.32074	1.77504	743.97412	-959.43335	
3549	35.480	-780.76288	6.48232	-641.45874	791.66492	11.08554	-634.82239	-697.83496	5.64258	496.41357	719.50446	10.12772	582.34650	1.79795	743.96741	-959.45496	
3550	35.490	-780.65363	6.37813	-641.50287	791.64203	11.05147	-634.86908	-697.77679	5.62294	496.42502	719.50677	10.13015	582.32068	1.79682	743.91400	-959.45428	
3551	35.500	-780.62604	6.34610	-641.48627	791.59656	11.02008	-634.92267	-697.82971	5.62908	496.37103	719.50562	10.13451	582.32397	1.78963	743.91687	-959.44434	
3552	35.510	-780.67810	6.34407	-641.49475	791.58948	10.98919	-634.93219	-697.84308	5.60392	496.36893	719.46783	10.13671	582.29138	1.80924	743.84937	-959.48389	
3553	35.520	-780.61230	6.28701	-641.50885	791.64532	11.01747	-634.88501	-697.84485	5.62216	496.37149	719.45148	10.09551	582.29834	1.80740	743.87250	-959.44641	
3554	35.530	-780.71973	6.42163	-641.48566	791.55725	11.03009	-634.96283	-697.78424	5.60051	496.38007	719.47919	10.09705	582.31281	1.77680	743.93738	-959.49780	
3555	35.540	-780.63715	6.41853	-641.51416	791.65381	11.08657	-634.89496	-697.81067	5.61070	496.39285	719.51849	10.12343	582.32605	1.76295	743.95898	-959.50531	
3556	35.550	-780.68237	6.44554	-641.53394	791.42853	11.11872	-635.00385	-697.81549	5.66896	496.43753	719.48334	10.14799	582.35541	1.80615	743.96442	-959.48608	
3557	35.560	-780.69135	6.39873	-641.46814	791.59277	11.05589	-634.88446	-697.79803	5.56938	496.41415	719.46545	10.08050	582.31683	1.76907	743.97906	-959.49390	
3558	35.570	-780.64014	6.33231	-641.46838	791.57086	11.04033	-634.89569	-697.84277	5.58795	496.41098	719.45929	10.03969	582.33203	1.76989	743.96832	-959.46478	
3559	35.580	-780.55090	6.25364	-641.50751	791.58197	11.05591	-634.89148	-697.82355	5.60880	496.38037	719.45709	10.06363	582.31567	1.77821	743.96625	-959.39850	
3560	35.590	-780.67877	6.39380	-641.51392	791.64508	11.06937	-634.87347	-697.79510	5.62227	496.41940	719.50818	10.12114	582.30811	1.81460	743.93250	-959.35858	
3561	35.600	-780.66486	6.39158	-641.46686	791.58270	11.05294	-634.89471	-697.80090	5.61452	496.36954	719.49854	10.14720	582.30548	1.79910	743.91077	-959.36688	
3562	35.610	-780.68713	6.39216	-641.46130	791.58984	11.03224	-634.91888	-697.80884	5.62504	496.36758	719.47357	10.14889	582.32001	1.84036	743.88367	-959.36090	
